<?xml version="1.0" encoding="utf-8"?>
<!-- Generator: Adobe Illustrator 18.0.0, SVG Export Plug-In . SVG Version: 6.00 Build 0)  -->
<!DOCTYPE svg PUBLIC "-//W3C//DTD SVG 1.1//EN" "http://www.w3.org/Graphics/SVG/1.1/DTD/svg11.dtd">
<svg version="1.1" id="Layer_1" xmlns="http://www.w3.org/2000/svg" xmlns:xlink="http://www.w3.org/1999/xlink" x="0px" y="0px"
	 viewBox="0 0 29.5 58.8" enable-background="new 0 0 29.5 58.8" xml:space="preserve">
<g>
	<path d="M29.3,39.2c0,3.1-1.2,5.7-3.5,7.6s-5.5,3.2-9.6,3.7v8.3h-2.8v-8.2c-2.2,0-4.5-0.3-7-0.8c-2.5-0.5-4.6-1.1-6.1-1.8v-3.6
		C2,45.3,4.1,46,6.6,46.6c2.4,0.6,4.7,0.9,6.8,0.9V29.7c-3.4-1-5.9-2.1-7.6-3.1c-1.6-1-2.8-2.2-3.6-3.7c-0.8-1.4-1.1-3.1-1.1-5.1
		c0-2.9,1.1-5.3,3.3-7.3c2.2-2,5.2-3.2,8.9-3.7V0h2.8v6.7c4.6,0.2,8.7,1.1,12.3,2.5l-1.2,3.2c-3.3-1.5-7-2.3-11.2-2.5v17.1
		c5,1.5,8.4,3.2,10.3,5.1C28.4,33.8,29.3,36.2,29.3,39.2z M4.9,17.8c0,2,0.7,3.7,2,5c1.3,1.3,3.5,2.4,6.4,3.3V10.1
		c-2.8,0.4-4.9,1.3-6.3,2.7C5.6,14.1,4.9,15.8,4.9,17.8z M25.5,39c0-2-0.7-3.6-2.2-4.9s-3.8-2.4-7-3.4v16.6c2.9-0.3,5.1-1.2,6.8-2.6
		C24.6,43.2,25.5,41.3,25.5,39z"/>
</g>
</svg>
