<?xml version="1.0" encoding="utf-8"?>
<!-- Generator: Adobe Illustrator 18.0.0, SVG Export Plug-In . SVG Version: 6.00 Build 0)  -->
<!DOCTYPE svg PUBLIC "-//W3C//DTD SVG 1.1//EN" "http://www.w3.org/Graphics/SVG/1.1/DTD/svg11.dtd">
<svg version="1.1" id="Layer_1" xmlns="http://www.w3.org/2000/svg" xmlns:xlink="http://www.w3.org/1999/xlink" x="0px" y="0px"
	 viewBox="0 647.9 595.3 194" enable-background="new 0 647.9 595.3 194" xml:space="preserve">
<polygon points="27.9,652.7 591.6,651.9 517.9,836.1 27.9,836.1 56.6,775.1 13,773 40.7,711.7 "/>
<path fill="#087359" d="M185.4,759.3c2.8-6.1,5.3-11.6,7.9-17c6.3-13.3,12.6-26.5,18.8-39.9c1.5-3.3,3.5-5.8,7-7c1-0.3,1.9-1,2.7-2
	c-3.6,0-7.2-0.1-10.8,0c-2,0-3.1-0.1-1.9-2.6c2.6-5.8,4.9-11.7,7.5-17.5c0.4-0.9,1.8-1.9,2.8-1.9c11.1-0.1,22.3-0.5,33.3,0.1
	c11.4,0.6,15.2,9.2,14.2,19.8c-0.9,10.3-2.4,20.5-3.7,30.7c-1.3,10.2-2.5,20.5-3.8,30.7c-0.9,6.8-1,6.8-7.9,6.8
	c-5.6,0-11.2-0.1-16.8,0c-1.9,0-2.7-0.2-2.2-2.5c1-4.5,1.4-9.1,2.1-13.7c0.4-2.6,0-3.9-3.2-3.8c-7.6,0.2-7.6,0-10.9,6.9
	c-1.7,3.7-3.4,7.4-5.2,11.1c-0.4,0.7-1.2,1.7-1.9,1.7C204.4,759.4,195.3,759.3,185.4,759.3z M237.2,753.5"/>
<path fill="#FEFEFE" d="M299,846.5c-98.4,0-197,0-295.4,0.1c-2.4,0-3-0.5-3-3c0.1-64.3,0.1-128.6,0-193c0-2.2,0.4-2.7,2.7-2.7
	c197.2,0.1,394.4,0.1,591.6,0c2.2,0,2.7,0.4,2.7,2.7c-0.1,64.4-0.1,128.9,0,193.3c0,2.2-0.4,2.7-2.7,2.7
	C496.2,846.5,397.7,846.5,299,846.5z M312,651.9c-93.4,0-186.8,0-280.2,0c-4.3,0-4.3,0.1-3.6,4.4c2.7,15.3,5.5,30.7,8.1,46.2
	c0.3,2,0,4.4-0.8,6.3c-9.8,22.4-19.8,44.8-29.9,67.1c-1.1,2.4-0.3,2.6,1.8,2.6c10.9,0,21.8,0,32.7,0.1c6.4,0,6.3,0,3.7,5.9
	c-8,18.1-15.8,36.4-23.8,54.6c-1.1,2.6-0.8,3.2,2,3.2c166.6-0.1,333.2-0.1,499.8,0c2.4,0,3.3-0.8,4.1-3
	c10.7-28.9,21.5-57.8,32.3-86.7c12-32.1,24-64.2,36.1-96.3c1.6-4.3,1.6-4.3-2.7-4.3C498.3,651.9,405.2,651.9,312,651.9z"/>
<path fill="#A9AFB6" d="M312,651.9c93.2,0,186.4,0,279.6,0c4.3,0,4.3,0,2.8,4.1c-12,32.1-24,64.2-36.1,96.3
	c-10.8,28.8-21.6,57.8-32.3,86.7c-0.8,2.2-1.7,3-4.1,3c-166.6-0.1-333.2-0.1-499.8,0c-2.9,0-3.2-0.6-2-3.2
	c8-18.1,15.9-36.4,23.8-54.6c2.6-5.9,2.7-5.9-3.7-5.9c-10.9,0-21.8-0.1-32.7-0.1c-2.1,0-2.9-0.1-1.8-2.6c10-22.3,20-44.7,29.9-67.1
	c0.8-1.9,1.1-4.3,0.8-6.3c-2.6-15.4-5.3-30.7-8.1-46.2c-0.8-4.1-0.8-4.2,3.5-4.2C125.2,651.9,218.5,651.9,312,651.9z M61.1,769.2
	c-0.8,1.8-1.3,3.1-1.8,4.4c-7.8,18.1-15.5,36.4-23.3,54.5c-0.9,2-1.1,3.2,1.8,2.9c0.6-0.1,1.3,0,1.9,0c157.1,0,314.4,0,471.5,0
	c0.6,0,1.3-0.1,1.9,0c1.9,0.3,3-0.6,3.6-2.4c5.4-13.7,10.8-27.3,16.2-41.1c15.8-40.2,31.7-80.2,47.6-120.4c2.4-6.1,2.5-6-3.9-6
	c-177.3,0-354.5,0-531.9,0c-0.9,0-1.7,0.1-2.6,0c-2.6-0.4-2.8,0.9-2.4,3c1.9,11,3.6,22.1,5.6,33.1c0.9,5,0.4,9.3-1.7,14
	c-7.7,17.2-15,34.7-22.5,52c-0.8,1.8-1.6,3.7-2.5,5.9C32.9,769.2,46.8,769.2,61.1,769.2z"/>
<path fill="#0B745B" d="M181,757.1c-0.4,0.9-1.8,1.9-2.7,1.9c-14.6,0.1-29.1,0.2-43.8,0c-5.8-0.1-10.2-4.8-10.6-10.6
	c-0.4-5.3,1.1-10.2,3.1-15c4.3-10.6,8.5-21.2,12.4-31.9c1.2-3.2,2.9-5.4,6.3-6.2c0.8-0.2,1.5-0.7,2.2-1.7c-2.8,0-5.6-0.1-8.4,0
	c-1.9,0.1-2.9-0.6-3.1-2.4c-0.7-6.1-1.3-12.2-1.9-18.3c0-0.4,0.7-1.1,1.2-1.3c0.5-0.2,48.4-0.1,71.6-0.1c2.7,0,3.6,0.2,2.3,3.2
	c-4.2,10-12.7,31.6-13,32.3c-0.6-0.6-4.7-8.1-6.5-11.2c-0.6-1-2.2-2-3.4-2.1c-3.9-0.3-7.8,0-11.6-0.1c-2-0.1-3,0.7-3.6,2.5
	c-0.7,1.9-1.4,3.8-2.2,5.7c-0.8,1.8-0.2,2.3,1.6,2.3c4.3,0,8.6,0,13.4,0c-0.6,1.3-8.2,13.2-11.4,18.3c-1.1,1.7-2.3,2.5-4.4,2.4
	c-8.4-0.1-8.4,0-11.4,7.8c-0.3,0.7-0.6,1.4-0.9,2.1c-0.5,1.4-0.3,2.3,1.5,2.3c5.1,0,10.1,0.1,15.2-0.1c1.1,0,2.2-0.9,3.1-1.5
	c5.9-4.1,10.1-5.2,16-9.4C192,726.1,182.4,753.9,181,757.1z M129.2,737.8"/>
<path fill="#0A745B" d="M295.7,693.5c-4.4,0-8.8-0.1-13.2,0.1c-2.2,0.1-3.2-0.7-3.5-2.7c-0.9-5.5-1.7-11-2.7-16.5
	c-0.3-2,0.3-2.9,2.5-2.9c21.2,0.1,42.4-0.1,63.6,0.2c6.4,0.1,12.8,1.6,15.9,8.4c2.1,4.5,1.1,9.1-0.7,13.5c-1.5,3.6-3,7.2-4.7,10.6
	c-0.6,1.2-1.6,2.3-2.7,3c-3.1,1.9-6.3,3.7-9.5,5.4c-1.5,0.8-1.7,1.6-0.6,3c4.2,5.3,3.9,11.1,1.6,17.1c-3,7.7-6.1,15.4-9,23.2
	c-0.9,2.3-2,3.3-4.7,3.3c-7.4-0.2-14.9-0.1-22.3-0.1c-3.6,0-3.6,0-2.3-3.3c3-7.4,6.1-14.7,9-22.1c2.3-5.8,1.4-9.3-3.4-13.2
	c-2.9,7.5-5.8,14.8-8.6,22.2c-1.8,4.6-3.6,9.2-5.3,13.9c-0.7,1.9-1.8,2.6-3.9,2.5c-8.4-0.1-16.8-0.1-25.3,0c-2.8,0-3.3-0.6-2.2-3.2
	c6-14.3,11.9-28.6,17.9-43c1.6-3.8,3.3-7.5,4.6-11.4c1.1-3.4,2.9-5.6,6.5-6.2c1-0.2,2-0.8,3-1.3
	C295.7,693.8,295.7,693.6,295.7,693.5z M310.4,755.6"/>
<path fill="#0A745A" d="M404.7,753.1c-1.7,5-4.4,6.2-9.4,6.1c-12.4-0.4-24.8-0.1-37.3-0.1c-7.9,0-12-4.4-12.4-12.2
	c-0.3-7,2.8-13,5.3-19.1c5.7-14.2,11.4-28.4,17.5-42.5c2.2-5.2,5.7-9.8,11.3-11.9c2.4-0.9,4.9-1.8,7.4-1.8
	c15.3-0.2,30.6-0.1,46.1-0.1c1.4,0,3.3-0.5,2.2,2.3c-4.5,11-8.9,22-13.3,32.9c-0.1,0.3-5-7.3-7.3-11.2c-0.5-0.9-1.9-1.9-2.9-1.9
	c-5.3-0.2-10.6-0.2-15.9,0c-0.9,0-2.2,0.9-2.5,1.7c-5,12-9.9,24.1-14.7,36.3c-1.7,4.4-0.9,4.9,3.7,5.4c8.9,1.1,16.7-1.2,23.5-6.9
	c3.3-2.6,6.9-4.6,10.5-6.7 M358.2,755.3"/>
<path fill="#0B755B" d="M520.8,693.5c-5.8,0-11.7-0.1-17.5,0c-2.1,0-2.8-0.8-3.1-2.8c-0.8-5.2-1.6-10.4-2.5-15.6
	c-0.4-2.6,0-3.8,3.2-3.8c22.9,0.1,45.9,0.1,68.7,0c2.6,0,3.5,0.2,2.2,3.1c-2.6,5.6-4.8,11.3-7.3,16.9c-0.4,1-1.9,1.9-3,2
	c-4.6,0.2-9.3,0.2-13.9,0.1c-1.9,0-2.8,0.6-3.6,2.4c-7.8,20.1-15.8,40.2-23.6,60.2c-0.8,2.1-1.8,3.1-4.2,3
	c-8.3-0.2-16.6-0.1-24.9-0.1c-3.6,0-3.6-0.1-2.3-3.3c7.4-17.8,15-35.6,22-53.6C512.9,697,516.6,695.5,520.8,693.5z M534.4,675"/>
<path fill="#FDFDFD" d="M178.3,753.6c-0.3,0.8-1.7,1.7-2.5,1.7c-13.2,0.1-26.3,0.2-39.6,0c-6.1-0.1-9-3.4-8.6-9.6
	c0.2-2.8,0.8-5.6,1.8-8.2c4.5-11.8,9.1-23.5,13.9-35.2c0.6-1.5,2.1-2.9,3.6-3.6c6.5-3,13.1-5.7,19.6-9.1c-7.9,0-15.9-0.1-23.8,0
	c-1.9,0-2.7-0.4-2.8-2.4c-0.2-3.3-0.6-6.7-1-10c-0.2-1.6,0.1-2.3,2-2.3c20.7,0.1,41.5,0,62.3,0c1.7,0,2.4,0.3,1.6,2.2
	c-2.8,7-5.5,14-8.5,21.6c-1.4-2.6-2.6-4.7-3.6-6.9c-0.8-1.6-1.7-2.4-3.7-2.4c-5.5,0.2-11,0-16.5,0.1c-1,0-2.5,0.6-2.8,1.3
	c-2.3,5.4-4.4,10.9-6.7,16.7c5,0,9.6,0,14.7,0c-2.8,4.4-5.3,8.3-7.9,12.2c-0.3,0.5-2.9,0.9-3.5,0.9c-8.8,0-8.8,0-12.1,8.3
	c-1.2,3-2.3,6-3.6,9c-0.8,1.8-0.6,2.5,1.5,2.4c7-0.1,14,0,21-0.1c1.1,0,2.3-0.5,3.2-1.1c3.1-2,7.9-5.1,10.9-7.1
	C187.3,732.7,180.9,747,178.3,753.6z"/>
<path fill="#FCFDFD" d="M332.2,713c1.7,1.6,3.4,2.9,4.7,4.6c2.8,3.4,3.6,7.3,2,11.5c-3.1,8.1-6.2,16.3-9.5,24.3
	c-0.4,0.9-1.8,1.8-2.8,1.8c-5.4,0.2-10.8,0-16.2,0.1c-2.7,0.1-2.5-1-1.7-2.9c2.3-5.6,4.4-11.2,6.9-16.7c3-6.8,2.4-12.7-3.2-18
	c-1.6-1.5-2.9-3.2-4.6-5c-5.1,13.3-10.2,26.3-15.1,39.5c-0.9,2.5-2.1,3.2-4.7,3.1c-5.7-0.2-11.4-0.1-17.2,0c-2.1,0-2.6-0.4-1.7-2.6
	c7.1-17,14-34.1,21.2-51.1c0.5-1.2,1.9-2.3,3.2-2.8c7.6-3,15.2-5.9,22.7-9.3c-9.8,0-19.7-0.2-29.5,0.1c-3.2,0.1-4.3-0.9-4.5-4
	c-0.2-2.8-0.8-5.5-1.3-8.3c-0.3-1.8,0-2.5,2-2.5c20,0.1,40,0.2,60,0.3c0.9,0,1.7,0.1,2.6,0.3c9.7,1.8,12.1,7.2,8.9,16.4
	c-2.8,8.1-7.3,14-15.4,17.2C336.5,710.1,334.4,711.7,332.2,713z M339.9,689.5c-7.6,0-14.2-0.1-20.9,0.1c-0.9,0-2.1,1-2.5,1.8
	c-2.8,5.9-8,19.6-8.2,20.3C308.2,711.7,328.9,697.2,339.9,689.5z"/>
<path fill="#FDFDFD" d="M421,698.9c-1.5-2.8-2.7-5-3.7-7.2c-0.7-1.5-1.6-2.2-3.5-2.1c-6.6,0.1-13.2,0.1-19.8,0
	c-1.8,0-2.7,0.5-3.3,2.2c-5,12.5-10.1,25-15.1,37.5c-0.5,1.2-0.9,2.4-1.1,3.7c-0.9,4.4,1.1,7.4,5.5,7.6c5.1,0.3,10.1,0.2,15.2,0
	c1.1,0,2.2-0.7,3.2-1.4c3.3-2.2,6.6-4.4,10.5-7.1c-3.2,7.8-6.1,14.9-9.2,22c-0.3,0.6-1.5,1.1-2.3,1.1c-13.1,0.1-26.1,0.1-39.3,0
	c-6.7-0.1-10.2-4.3-8.8-10.9c1.1-5,2.9-9.9,4.8-14.7c4.8-12.4,9.8-24.8,14.8-37.3c1-2.6,2.4-5.1,3.7-7.5c3.6-6.4,8.9-10,16.5-9.9
	c13,0.1,25.9,0.1,39,0c2.2,0,2.3,0.7,1.5,2.5C426.9,684.4,424.2,691.3,421,698.9z"/>
<path fill="#FDFDFD" d="M238,689.6c-7.9,0-15.7,0-24,0c1.9-4.6,3.6-9,5.6-13.2c0.3-0.6,1.5-1.1,2.3-1.1c10-0.1,20.1-0.2,30.1,0
	c7.2,0.1,11.5,4.5,11.3,12.1c-0.2,6.8-1.3,13.5-2,20.3c-1.7,14.5-3.4,28.9-5,43.5c-0.5,4.7-0.5,4.7-5.3,4.7c-4,0-8-0.2-12-0.1
	c-2,0.1-2.3-0.6-2-2.4c0.8-4.9,1.5-9.8,2.3-14.7c0.4-2.1,0-2.9-2.4-2.8c-4.3,0.2-8.6,0.1-13,0c-1.8,0-2.7,0.5-3.4,2.2
	c-2.3,5.2-4.7,10.4-7.3,15.5c-0.4,0.9-1.6,1.9-2.4,1.9c-6.2,0.2-12.5,0.1-19.5,0.1c1.9-4.1,3.5-7.4,5.1-10.8
	c6.6-13.9,13.1-27.9,19.7-41.9c0.7-1.5,2.2-2.9,3.7-3.7c6-3.2,12.1-6.1,18.1-9.2C238,689.9,238,689.8,238,689.6z M235.3,720.7
	c1.1,0,2.2-0.2,3.2,0c2.4-0.2,3.5-0.6,3.8-3.1c1.1-8.4,2.4-16.8,3.6-25.2c0.1-0.9-0.4-1.9-0.6-2.9c-1,0.7-2.5,1.2-3,2.1
	c-3.7,7.6-7.3,15.3-10.9,23C228.6,720.7,228.6,720.7,235.3,720.7z"/>
<path fill="#FCFDFD" d="M542.1,689.9c-1.7,4.3-3.1,8.1-4.6,11.8c-6.6,16.9-13.3,33.9-19.9,50.8c-0.9,2.2-2,2.9-4.2,2.8
	c-5.8-0.1-11.6-0.1-17.5,0c-2,0-2.7-0.3-1.8-2.5c7.1-17.1,14.1-34.3,21.3-51.3c0.3-0.8,1-1.8,1.8-2.1
	C525.3,696.3,533.4,693.3,542.1,689.9z"/>
<path fill="#FDFEFE" d="M534.4,675c10,0,20.1,0.1,30.1,0c2.4,0,2.8,0.6,1.8,2.7c-1.5,3.3-2.8,6.8-4.4,10c-0.4,0.9-1.8,1.8-2.7,1.8
	c-17.7,0.1-35.4,0.1-53.1,0.1c-1.9,0-2.4-0.8-2.6-2.4c-0.4-3.2-0.8-6.4-1.5-9.6c-0.5-2.3,0.2-2.8,2.3-2.7
	C514.3,675,524.4,675,534.4,675z"/>
<path fill="#212222" d="M90.9,700.7c-0.1,0.3-0.2,0.5-0.4,0.8c-0.1-0.1-0.2-0.2-0.2-0.2c0.1-0.2,0.3-0.5,0.4-0.7
	C90.7,700.5,90.9,700.7,90.9,700.7z"/>
<path fill="#212222" d="M39.7,664.1"/>
<path fill="#212222" d="M530.2,664.1"/>
<g>
	<path fill="#0E735B" d="M36.5,757.1c2.3-5.4,4.6-10.8,6.9-16.2c2.3-5.5,4.7-11,7.1-16.5c2.3-5.3,4.5-10.7,7-16
		c1.3-2.7,2.2-5.6,3.5-8.4c1.3-2.9,3.6-4.7,6.7-5.4c0.8-0.2,1.6-0.5,2.3-1c0.2-0.4,0.2-0.7,0.1-1.1c-0.4-0.3-0.9-0.2-1.3-0.2
		c-3.5,0-7,0-10.6,0c-1.8,0-2.7-0.8-2.9-2.6c-0.7-5.4-1.7-10.8-2.8-16.1c-0.1-0.5-0.1-0.9-0.1-1.4c0-0.7,0.4-1,1.1-1
		c0.2,0,0.4,0,0.6,0c20.9,0,41.7,0,62.6,0c2.9,0,5.7,0.4,8.4,1.5c4.3,1.8,6.6,5.1,7.5,9.5c0.8,3.6-0.1,7-1.4,10.4
		c-1.1,3.1-3.8,9.3-6.5,11.8c-1.8,1.7-5.3,3.1-7.5,4.2c-0.8,0.4-1.5,1-2.2,1.6c-0.9,0.9-1.1,1.9-0.7,3.1c0.5,1.4,1.3,2.6,1.9,4
		c1.4,3.5,1.9,7.1,0.5,10.8c-2,5.3-4.1,10.5-6.6,15.6c-2.2,4.5-5.3,8.1-9.8,10.5c-3.1,1.6-6.4,2.5-9.9,2.9
		c-7.1,0.9-14.2,0.5-21.3,0.8c-6.2,0.2-12.4,0.2-18.6,0.1c-4.2,0-8.4-0.2-12.6-0.2C37.3,757.9,36.8,757.8,36.5,757.1z"/>
	<path fill="#FCFDFE" d="M89.4,689.2c-1.7-0.3-3.3-0.2-4.8-0.2c-7.8,0-15.5,0-23.3,0c-2.5,0-3.4-0.8-3.6-3.3c-0.2-3-0.8-5.8-1.4-8.7
		c-0.1-0.4-0.1-0.7-0.2-1.1c-0.1-1.2,0.3-1.6,1.5-1.6c1.8,0,3.6,0.1,5.4,0.1c16.6,0,33.1,0,49.7,0.1c2.8,0,5.6-0.1,8.3,0.7
		c1.4,0.4,2.8,0.8,4.1,1.6c3.1,1.8,4.6,4.6,4.3,8c-0.7,7.4-3.5,14-9.3,18.9c-1.4,1.2-2.9,2.1-4.6,2.8c-3.2,1.2-6.1,3.1-9.1,4.9
		c0.9,0.7,1.8,1.4,2.6,2.2c2.4,2,4.1,4.3,4.7,7.4c0.3,1.8,0.4,3.6-0.2,5.3c-1.8,5.4-3.6,10.8-6.3,15.8c-4,7.4-10.5,11.3-18.8,12.1
		c-4.7,0.5-9.4,0.4-14.1,0.6c-7,0.2-14,0-21,0.2c-3.7,0.1-7.4,0.1-11.1,0.1c-0.4,0-0.8,0-1.3,0c0.6-1.5,1.2-2.9,1.8-4.3
		c6.8-15.9,13.6-31.8,20.4-47.7c1.1-2.6,2.9-4.4,5.6-5.3c6.6-2.3,13.1-5,19.6-7.8C88.6,689.7,89,689.6,89.4,689.2z"/>
	<path fill="#10765E" d="M82.9,711.2c-0.7-0.3-0.5-0.7-0.3-1c2.9-6.4,5.5-12.8,8.5-19.1c0.6-1.3,1.7-2,3-2c6.5-0.1,12.9,0,19.4,0
		c0.3,0.3,0.2,0.7,0.3,1.2C103.5,697.2,93.2,704.2,82.9,711.2z"/>
	<path fill="#10745B" d="M81.9,712.3c2.8,3.3,5.9,6.4,8.5,10c1.4,2,1.7,4.2,1.1,6.6c-0.8,2.8-2,5.5-3.8,7.7
		c-1.7,2.1-3.9,3.1-6.6,3.1c-2.9,0-5.8,0-8.6,0c-1.4,0-1.7-0.5-1.2-1.8C74.8,729.4,78.3,720.9,81.9,712.3
		C81.7,712.3,81.7,712.3,81.9,712.3z"/>
	<path d="M83,719.7c2.3,2.1,4.9,4.1,4.8,7.5c-0.1,3.4-2.6,8.4-7.8,9c-0.7,0.1-1.4,0.1-2.1-0.2c-0.9-0.3-1.2-0.9-0.9-1.8
		c1.9-4.7,3.7-9.3,5.6-14C82.7,720.1,82.8,719.9,83,719.7z"/>
	<path d="M88.8,704c-0.4-0.1-0.3-0.4-0.2-0.5c1.5-3.4,3-6.9,4.6-10.3c0.3-0.7,0.9-1.1,1.6-1.1c3.5,0,7,0,10.4,0
		c0.2,0.2,0.1,0.4,0.1,0.6C99.9,696.4,94.3,700.2,88.8,704z"/>
</g>
<path d="M235.7,717.9c-2-0.3-2.3-0.4-1.1-3.7c1.6-4.1,8.2-19.4,8.7-19.8c0.1,0.5-3.2,16.5-3.7,21c-0.1,1.3-0.9,2-1.9,2.4
	C237.3,717.7,236.2,718,235.7,717.9z"/>
<path d="M319.2,693.5l-4.4,10.7l16.8-11.8h-10.8c-0.3,0-0.6,0.1-0.9,0.3l0,0C319.5,692.9,319.3,693.2,319.2,693.5z"/>
<path fill="#087359" d="M444.9,671.2c11.1-0.1,22.3-0.5,33.3,0.1c11.4,0.6,15.2,9.2,14.2,19.8c-0.9,10.3-2.4,20.5-3.7,30.7
	c-1.3,10.2-2.5,20.5-3.8,30.7c-0.9,6.8-1,6.8-7.9,6.8c-5.6,0-11.2-0.1-16.8,0c-1.9,0-2.7-0.2-2.2-2.5c1-4.5,1.4-9.1,2.1-13.7
	c0.4-2.6,0-3.9-3.2-3.8c-7.6,0.2-7.6,0-10.9,6.9c-1.7,3.7-3.4,7.4-5.2,11.1c-0.4,0.7-1.2,1.7-1.9,1.7c-9,0.1-18.1,0-28,0
	c2.8-6.1,5.3-11.6,7.9-17c6.3-13.3,12.6-26.5,18.8-39.9c1.5-3.3,3.5-5.8,7-7c1-0.3,1.9-1,2.7-2c-3.6,0-7.2-0.1-10.8,0
	c-2,0-3.1-0.1-1.9-2.6c2.6-5.8,4.9-11.7,7.5-17.5C442.5,672.2,443.9,671.2,444.9,671.2"/>
<path fill="#087359" d="M462.6,753.3"/>
<path fill="#FDFDFD" d="M463.4,689.4c-7.9,0-15.7,0-24,0c1.9-4.6,3.6-9,5.6-13.2c0.3-0.6,1.5-1.1,2.3-1.1c10-0.1,20.1-0.2,30.1,0
	c7.2,0.1,11.5,4.5,11.3,12.1c-0.2,6.8-1.3,13.5-2,20.3c-1.7,14.5-3.4,28.9-5,43.5c-0.5,4.7-0.5,4.7-5.3,4.7c-4,0-8-0.2-12-0.1
	c-2,0.1-2.3-0.6-2-2.4c0.8-4.9,1.5-9.8,2.3-14.7c0.4-2.1,0-2.9-2.4-2.8c-4.3,0.2-8.6,0.1-13,0c-1.8,0-2.7,0.5-3.4,2.2
	c-2.3,5.2-4.7,10.4-7.3,15.5c-0.4,0.9-1.6,1.9-2.4,1.9c-6.2,0.2-12.5,0.1-19.5,0.1c1.9-4.1,3.5-7.4,5.1-10.8
	c6.6-13.9,13.1-27.9,19.7-41.9c0.7-1.5,2.2-2.9,3.7-3.7c6-3.2,12.1-6.1,18.1-9.2C463.4,689.7,463.4,689.6,463.4,689.4z M460.8,720.6
	c1.1,0,2.2-0.2,3.2,0c2.4-0.2,3.5-0.6,3.8-3.1c1.1-8.4,2.4-16.8,3.6-25.2c0.1-0.9-0.4-1.9-0.6-2.9c-1,0.7-2.5,1.2-3,2.1
	c-3.7,7.6-7.3,15.3-10.9,23C454.1,720.6,454.1,720.6,460.8,720.6z"/>
<path d="M461.2,717.7c-2-0.3-2.3-0.4-1.1-3.7c1.6-4.1,8.2-19.4,8.7-19.8c0.1,0.5-3.2,16.5-3.7,21c-0.1,1.3-0.9,2-1.9,2.4
	C462.8,717.6,461.7,717.8,461.2,717.7z"/>
<g>
	<path fill="#007A5E" d="M97.7,817.2l-33.1-0.1l17-41.2l33.1,0l-2.4,5.8l-23,0l-4.6,11.2l21.4,0l-2.3,5.7l-21.5,0l-5.3,12.9l23,0.1
		L97.7,817.2z"/>
	<path fill="#007A5E" d="M152.2,817.4l-11,0l-6.7-16.8l-20.3,16.7l-11.3,0l27.1-21.8l-8.9-19.6l10.5,0l6.2,15.3l18.7-15.3l11.5,0
		L142.4,796L152.2,817.4z"/>
	<path fill="#007A5E" d="M200.4,781.1c-4.5,0-8.5,0.8-12.2,2.5c-3.6,1.7-6.7,4.1-9.1,7.4c-2.4,3.2-3.8,6.8-4.1,10.7
		c-0.3,3.4,0.6,6,2.9,7.9c2.2,1.8,5.7,2.7,10.3,2.8c4.1,0,8.9-0.6,14.5-1.9l-0.5,5.9c-5.3,1.3-10.8,1.9-16.4,1.9
		c-7.2,0-12.6-1.5-16.4-4.3c-3.8-2.8-5.5-6.8-5-11.9c0.5-4.9,2.4-9.5,5.8-13.7c3.4-4.2,7.8-7.4,13.1-9.6c5.3-2.2,11.2-3.3,17.7-3.3
		c6.3,0,11.8,0.9,16.7,2.6l-4.6,5.6c-1.8-0.6-3.7-1.2-5.7-1.7C205.3,781.3,203,781.1,200.4,781.1z"/>
	<path fill="#007A5E" d="M258.7,817.8l-10.4,0l7.8-18.9l-24.8,0l-7.8,18.8l-10.3,0l17.2-41.8l10.4,0l-7.1,17.1l24.8,0l7.1-17.1
		l10.4,0L258.7,817.8z"/>
	<path fill="#007A5E" d="M309.5,806.2l-21.4-0.1l-10.2,11.7l-11.2,0l38.2-42l12.1,0l3.7,42.2l-10.4,0L309.5,806.2z M309.3,800.2
		c-0.5-8-0.7-12.8-0.7-14.5c0-1.7,0-3,0.1-4c-1.9,2.7-4.2,5.6-7.1,8.8l-8.4,9.7L309.3,800.2z"/>
	<path fill="#007A5E" d="M378.6,818.2l-11.6,0l-15.4-33.7l-0.3,0l-0.6,2c-1,2.9-1.7,4.9-2.1,6.1c-0.4,1.2-3.9,9.7-10.4,25.5l-9.7,0
		l17.4-42.2l11.9,0l15,33.3l0.3,0c0.3-1,0.9-2.9,1.9-5.6c1-2.7,1.7-4.6,2.3-5.9l9-21.8l9.8,0L378.6,818.2z"/>
	<path fill="#007A5E" d="M429.4,795.3l23.2,0l-8.9,21.4c-3.4,0.8-6.8,1.3-10,1.7c-3.2,0.3-6.8,0.5-10.8,0.5
		c-7.9,0-13.8-1.5-17.9-4.3c-4.1-2.8-5.9-6.8-5.5-12c0.4-5.1,2.4-9.8,5.8-14c3.4-4.2,8.1-7.5,13.9-9.9c5.8-2.3,12.3-3.5,19.5-3.5
		c3.3,0,6.5,0.2,9.6,0.6c3,0.4,6.1,1.1,9.1,2l-4.6,5.9c-5.1-1.7-10.1-2.5-14.9-2.5c-4.8,0-9.2,0.9-13.2,2.6c-4,1.8-7.3,4.2-9.8,7.5
		c-2.5,3.2-3.9,6.8-4.3,10.8c-0.3,3.5,0.8,6.2,3.3,8.1c2.5,1.8,6.2,2.8,11.2,2.8c3.3,0,6.5-0.3,9.8-0.9l4.5-10.8l-12.5,0
		L429.4,795.3z"/>
	<path fill="#007A5E" d="M493.7,818.6l-35.4-0.1l17.6-42.7l35.4,0l-2.5,6l-24.6,0l-4.8,11.5l22.9,0l-2.4,5.9l-23,0l-5.5,13.3
		l24.6,0.1L493.7,818.6z"/>
</g>
</svg>
