<?xml version="1.0" encoding="utf-8"?>
<!-- Generator: Adobe Illustrator 18.0.0, SVG Export Plug-In . SVG Version: 6.00 Build 0)  -->
<!DOCTYPE svg PUBLIC "-//W3C//DTD SVG 1.1//EN" "http://www.w3.org/Graphics/SVG/1.1/DTD/svg11.dtd">
<svg version="1.1" id="Layer_1" xmlns="http://www.w3.org/2000/svg" xmlns:xlink="http://www.w3.org/1999/xlink" x="0px" y="0px"
	 viewBox="0 0 82.7 82.5" enable-background="new 0 0 82.7 82.5" xml:space="preserve">
<path fill="#007A5E" d="M40.9,82.5C18.1,82.5,0,64.1,0,41C0,18.3,18.7-0.2,41.5,0c22.8,0.2,41.3,18.7,41.3,41.4
	C82.7,64.3,64.2,82.6,40.9,82.5z M41.1,32.4c-3.7-4-6.7-7.6-10-10.9c-3.7-3.6-6.8-3.7-10-0.7c-3.3,3.1-3.3,6.7,0.4,10.4
	c3.2,3.3,6.7,6.4,10.7,10.1c-3.9,3.6-7.2,6.6-10.4,9.7c-3.8,3.8-4,7.2-0.9,10.4c3.3,3.4,6.7,3.2,10.7-0.9c3.1-3.2,6-6.7,9.5-10.6
	c4,4.4,7.1,7.9,10.4,11.2c3.6,3.5,7,3.6,10,0.6c3.3-3.2,3.2-6.7-0.6-10.4c-3.3-3.3-6.8-6.3-10.4-9.7c4.1-4,7.5-7.3,10.9-10.7
	c3.1-3.1,3.3-6.4,0.2-9.7c-3.1-3.3-6.4-3.3-10,0.2C48.2,24.7,45.1,28.2,41.1,32.4z"/>
</svg>
